<?xml version="1.0" encoding="UTF-8"?>
<svg id="Layer_2" data-name="Layer 2" xmlns="http://www.w3.org/2000/svg" viewBox="0 0 1984.87 1983.3">
  <defs>
    <style>
      .cls-1 {
        fill: #fff;
      }
    </style>
  </defs>
  <g id="Layer_1-2" data-name="Layer 1">
    <g>
      <path class="cls-1" d="M48.96,1039.82c-27,0-48.96-21.96-48.96-48.96s21.96-48.96,48.96-48.96,48.96,21.96,48.96,48.96-21.96,48.96-48.96,48.96ZM48.96,968.13c-12.54,0-22.74,10.2-22.74,22.74s10.2,22.74,22.74,22.74,22.74-10.2,22.74-22.74-10.2-22.74-22.74-22.74Z"/>
      <g>
        <rect class="cls-1" x="84.81" y="977.75" width="384.02" height="26.22"/>
        <path class="cls-1" d="M1550.26,439.39h267.55c5.23,13.31,18.19,22.74,33.36,22.74,19.8,0,35.85-16.05,35.85-35.85s-16.05-35.85-35.85-35.85c-15.17,0-28.13,9.43-33.36,22.74h-278.41l-192.08,192.08,18.54,18.54,184.4-184.4Z"/>
        <path class="cls-1" d="M163.88,413.17c-5.24-13.31-18.19-22.74-33.36-22.74-19.8,0-35.85,16.05-35.85,35.85s16.05,35.85,35.85,35.85c15.17,0,28.13-9.43,33.36-22.74h271.11l184.4,184.4,18.54-18.54-192.08-192.08H163.88Z"/>
        <path class="cls-1" d="M435,1527.75H163.88c-5.24-13.31-18.19-22.74-33.36-22.74-19.8,0-35.85,16.05-35.85,35.85s16.05,35.85,35.85,35.85c15.17,0,28.13-9.43,33.36-22.74h281.97l192.08-192.08-18.54-18.54-184.4,184.4Z"/>
        <path class="cls-1" d="M989.12,0c-27,0-48.96,21.96-48.96,48.96,0,22.45,15.2,41.41,35.85,47.16v372.7h26.22V96.12c20.65-5.75,35.85-24.71,35.85-47.16,0-27-21.96-48.96-48.96-48.96ZM989.12,71.7c-12.54,0-22.74-10.2-22.74-22.74s10.2-22.74,22.74-22.74,22.74,10.2,22.74,22.74-10.2,22.74-22.74,22.74Z"/>
        <path class="cls-1" d="M1002.23,1887.18v-372.7h-26.22v372.7c-20.65,5.75-35.85,24.71-35.85,47.16,0,27,21.96,48.96,48.96,48.96s48.96-21.96,48.96-48.96c0-22.45-15.2-41.41-35.85-47.16ZM989.12,1957.08c-12.54,0-22.74-10.2-22.74-22.74s10.2-22.74,22.74-22.74,22.74,10.2,22.74,22.74-10.2,22.74-22.74,22.74Z"/>
        <path class="cls-1" d="M1851.18,1505.01c-15.17,0-28.13,9.43-33.36,22.74h-267.55l-184.4-184.4-18.54,18.54,192.08,192.08h278.41c5.23,13.31,18.19,22.74,33.36,22.74,19.8,0,35.85-16.05,35.85-35.85s-16.05-35.85-35.85-35.85Z"/>
        <path class="cls-1" d="M1935.91,941.91c-22.45,0-41.41,15.2-47.16,35.85h-372.7v26.22h372.7c5.75,20.65,24.71,35.85,47.16,35.85,27,0,48.96-21.96,48.96-48.96s-21.96-48.96-48.96-48.96ZM1935.91,1013.6c-12.54,0-22.74-10.2-22.74-22.74s10.2-22.74,22.74-22.74,22.74,10.2,22.74,22.74-10.2,22.74-22.74,22.74Z"/>
        <path class="cls-1" d="M756.23,271.43c10.74-4.97,18.22-15.83,18.22-28.42,0-17.28-14.06-31.33-31.33-31.33s-31.33,14.06-31.33,31.33c0,12.59,7.48,23.45,18.22,28.42v174.77l104.51,175.05,22.51-13.44-100.8-168.84v-167.54ZM743.12,233.68c5.14,0,9.33,4.18,9.33,9.32s-4.18,9.33-9.33,9.33-9.33-4.18-9.33-9.33,4.18-9.32,9.33-9.32Z"/>
        <path class="cls-1" d="M763.08,1524.41l87.17-149.23-22.64-13.23-90.75,155.35v204.42h.11c-10.8,4.95-18.34,15.84-18.34,28.48,0,17.28,14.06,31.33,31.33,31.33s31.33-14.06,31.33-31.33c0-12.64-7.54-23.53-18.34-28.48h.11v-197.32ZM749.97,1759.53c-5.14,0-9.32-4.18-9.32-9.32s4.18-9.33,9.32-9.33,9.33,4.18,9.33,9.33-4.18,9.32-9.33,9.32Z"/>
        <path class="cls-1" d="M1729.8,760.49c5.3,9.82,15.68,16.51,27.59,16.51,17.28,0,31.33-14.06,31.33-31.33s-14.06-31.33-31.33-31.33c-13.25,0-24.58,8.28-29.15,19.93l-186.97-1.74-169.58,99.94,13.31,22.59,163.31-96.24,181.49,1.68ZM1757.4,736.34c5.14,0,9.33,4.18,9.33,9.32s-4.18,9.33-9.33,9.33-9.32-4.18-9.32-9.33,4.18-9.32,9.32-9.32Z"/>
        <path class="cls-1" d="M453.1,732.52l-178.09,1.65c-4.6-11.6-15.9-19.84-29.12-19.84-17.28,0-31.33,14.06-31.33,31.33s14.06,31.33,31.33,31.33c11.95,0,22.35-6.73,27.63-16.59l172.54-1.6,163.31,96.24,13.31-22.59-169.58-99.94ZM245.89,754.99c-5.14,0-9.33-4.18-9.33-9.33s4.18-9.32,9.33-9.32,9.33,4.18,9.33,9.32-4.18,9.33-9.33,9.33Z"/>
        <path class="cls-1" d="M446.07,1243.72l-172.54-1.6c-5.28-9.86-15.68-16.59-27.63-16.59-17.28,0-31.33,14.06-31.33,31.33s14.06,31.33,31.33,31.33c13.22,0,24.53-8.24,29.12-19.85l178.09,1.65,169.58-99.94-13.31-22.59-163.31,96.24ZM245.89,1266.18c-5.14,0-9.33-4.18-9.33-9.32s4.18-9.33,9.33-9.33,9.33,4.18,9.33,9.33-4.18,9.32-9.33,9.32Z"/>
        <path class="cls-1" d="M1541.28,1270l186.97-1.74c4.57,11.65,15.9,19.93,29.15,19.93,17.28,0,31.33-14.06,31.33-31.33s-14.06-31.33-31.33-31.33c-11.92,0-22.3,6.69-27.59,16.51l-181.49,1.68-163.31-96.24-13.31,22.59,169.58,99.94ZM1757.4,1247.53c5.14,0,9.33,4.18,9.33,9.33s-4.18,9.32-9.33,9.32-9.32-4.18-9.32-9.32,4.18-9.33,9.32-9.33Z"/>
        <path class="cls-1" d="M1231.16,211.67c-17.28,0-31.33,14.06-31.33,31.33,0,12.59,7.48,23.45,18.22,28.42v171.3l-87.17,149.22,22.64,13.23,90.75-155.35v-178.4c10.74-4.97,18.22-15.83,18.22-28.42,0-17.28-14.06-31.33-31.33-31.33ZM1231.16,233.68c5.14,0,9.32,4.18,9.32,9.32s-4.18,9.33-9.32,9.33-9.33-4.18-9.33-9.33,4.18-9.32,9.33-9.32Z"/>
        <path class="cls-1" d="M1244.27,1721.78v-187.74l-90.75-155.35-22.64,13.23,87.17,149.23v180.64c-10.74,4.97-18.22,15.83-18.22,28.42,0,17.28,14.06,31.33,31.33,31.33s31.33-14.06,31.33-31.33c0-12.59-7.48-23.45-18.22-28.42ZM1231.16,1759.53c-5.14,0-9.33-4.18-9.33-9.32s4.18-9.33,9.33-9.33,9.32,4.18,9.32,9.33-4.18,9.32-9.32,9.32Z"/>
      </g>
      <path class="cls-1" d="M1478.07,884.35l-75.36-12.69c-8.81-30.39-20.98-59.33-35.95-86.51l44.39-62.36c12.89-18.11,10.82-42.89-4.9-58.61l-87.13-87.13c-15.72-15.72-40.49-17.79-58.61-4.9l-62.33,44.37c-27.18-14.97-56.15-27.08-86.54-35.89l-12.69-75.4c-3.69-21.92-22.67-37.98-44.91-37.98h-123.22c-22.23,0-41.21,16.05-44.91,37.98l-12.69,75.36c-30.4,8.82-59.4,20.92-86.59,35.9l-62.29-44.34c-18.11-12.89-42.89-10.82-58.61,4.9l-87.13,87.13c-15.72,15.72-17.79,40.49-4.9,58.61l44.34,62.29c-14.98,27.19-27.08,56.19-35.9,86.59l-75.36,12.69c-21.92,3.69-37.98,22.67-37.98,44.91v123.22c0,22.23,16.05,41.21,37.98,44.91l75.4,12.69c8.82,30.38,20.92,59.35,35.89,86.54l-44.37,62.33c-12.89,18.11-10.82,42.89,4.9,58.61l87.13,87.13c15.72,15.72,40.5,17.79,58.61,4.9l62.36-44.39c27.18,14.97,56.13,27.14,86.51,35.95l12.69,75.36c3.69,21.92,22.67,37.98,44.91,37.98h123.22c22.23,0,41.21-16.05,44.91-37.98l12.69-75.36c30.4-8.82,59.39-20.92,86.59-35.9l62.29,44.34c18.11,12.89,42.89,10.82,58.61-4.9l87.13-87.13c15.72-15.72,17.79-40.5,4.9-58.61l-44.34-62.29c14.98-27.19,27.08-56.19,35.9-86.59l75.36-12.69c21.92-3.69,37.98-22.67,37.98-44.91v-123.22c0-22.23-16.05-41.21-37.98-44.91ZM992.43,1318.27c-180.82,0-327.41-146.59-327.41-327.41s146.59-327.41,327.41-327.41,327.41,146.59,327.41,327.41-146.59,327.41-327.41,327.41Z"/>
      <g>
        <path class="cls-1" d="M895.12,1047.44l-31.68,95.96h-40.74l103.65-305.07h47.53l104.1,305.07h-42.09l-32.59-95.96h-108.18ZM995.15,1016.66l-29.87-87.81c-6.79-19.92-11.32-38.02-15.84-55.67h-.91c-4.53,18.1-9.5,36.66-15.39,55.22l-29.87,88.26h91.88Z"/>
        <path class="cls-1" d="M1162.17,838.33v305.07h-39.38v-305.07h39.38Z"/>
      </g>
    </g>
  </g>
</svg>