<?xml version="1.0" encoding="UTF-8"?>
<svg id="Layer_2" data-name="Layer 2" xmlns="http://www.w3.org/2000/svg" viewBox="0 0 2212.45 2048.49">
  <defs>
    <style>
      .cls-1 {
        fill: none;
        stroke: #fff;
        stroke-linecap: round;
        stroke-linejoin: round;
        stroke-width: 62.45px;
      }

      .cls-2 {
        fill: #fff;
      }
    </style>
  </defs>
  <g id="Layer_1-2" data-name="Layer 1">
    <g>
      <circle class="cls-2" cx="1326.42" cy="1177.19" r="85.35" transform="translate(-443.9 1282.71) rotate(-45)"/>
      <g>
        <line class="cls-1" x1="1326.42" y1="428.03" x2="1326.42" y2="548.46"/>
        <line class="cls-1" x1="1326.42" y1="1926.35" x2="1326.42" y2="1805.92"/>
        <line class="cls-1" x1="2075.58" y1="1177.19" x2="1955.15" y2="1177.19"/>
        <line class="cls-1" x1="1326.42" y1="1091.85" x2="1326.42" y2="903.66"/>
        <g>
          <line class="cls-1" x1="1261.62" y1="310.06" x2="1261.62" y2="156.46"/>
          <line class="cls-1" x1="1407.1" y1="311.41" x2="1407.1" y2="156.46"/>
        </g>
        <polygon class="cls-1" points="1489.37 31.22 1489.37 156.46 1418.09 156.46 1334.36 156.46 1242.46 156.46 1179.34 156.46 1179.34 31.22 1489.37 31.22"/>
        <line class="cls-1" x1="1241.07" y1="1177.19" x2="1134.43" y2="1177.19"/>
        <path class="cls-1" d="M715.07,1759.91c96.64,98.87,217.07,174.4,352.04,217.31,22.82,7.26,46.06,13.58,69.66,18.92,60.99,13.82,124.47,21.11,189.64,21.11,472.1,0,854.81-382.71,854.81-854.81s-382.71-854.81-854.81-854.81c-241.98,0-460.47,100.54-615.98,262.13"/>
        <g>
          <line class="cls-1" x1="712.24" y1="753.92" x2="314.3" y2="753.92"/>
          <line class="cls-1" x1="568.39" y1="958.19" x2="37.61" y2="958.19"/>
          <line class="cls-1" x1="712.3" y1="1162.46" x2="31.22" y2="1162.46"/>
          <line class="cls-1" x1="569.87" y1="1366.72" x2="39.1" y2="1366.72"/>
          <line class="cls-1" x1="712.35" y1="1570.99" x2="314.41" y2="1570.99"/>
        </g>
      </g>
    </g>
  </g>
</svg>