<?xml version="1.0" encoding="UTF-8"?>
<svg id="Layer_1" xmlns="http://www.w3.org/2000/svg" version="1.1" viewBox="0 0 1296 421">
  <!-- Generator: Adobe Illustrator 30.2.1, SVG Export Plug-In . SVG Version: 2.1.1 Build 1)  -->
  <defs>
    <style>
      .st0 {
        stroke-width: 3px;
      }

      .st0, .st1 {
        fill: none;
        stroke: #fff;
        stroke-miterlimit: 10;
      }

      .st1 {
        stroke-width: 2px;
      }
    </style>
  </defs>
  <path class="st0" d="M1009.65,145.02l60.39-.07v155.4c-.31,13.42-1.62,26.33-4.68,39.3-2.79,11.85-7.6,22.47-14.97,32.15-14.5,19.04-34.97,32.19-58.39,37.82-21.1,5.07-43.32,5.19-64.52.59-22.94-4.99-43.08-17.17-58.2-34.95-18.96-22.29-21.76-45.69-22.46-74.24v-156.05s60.39.02,60.39.02v151.72c.25,14.16,2.13,28.85,9.06,41.13,5.68,10.05,14.82,17.05,26.11,19.84,10.64,2.63,21.62,2.63,32.24-.04,11.19-2.81,20.23-9.73,25.89-19.68,6.95-12.23,8.81-26.69,9.15-40.82v-152.12Z"/>
  <path class="st0" d="M579.33,358.37c27.81-4.52,42.93-22.92,61.07-43.14l.09,79.15c-27.88,14.57-56.31,21.19-87.93,18.54-16.98-1.43-33.3-5.28-48.82-12.39-18.46-8.46-34.56-20.93-47.77-36.33-15.01-17.51-24.95-38.36-28.91-61.12-2.97-17.03-3.07-34.12-.31-51.17,5.7-35.12,25.03-64.37,53.02-85.81,16.59-12.71,35.55-21.21,56.07-25.35,36.11-6.95,72.19-2.11,104.65,15.48l-.07,79.71c-6.83-7.45-12.83-14.68-20.09-21.32-4.79-4.37-9.53-8.21-14.98-11.69-16.05-10.32-36.33-12.66-54.89-9.49-14.7,2.51-27.77,9.31-38.48,19.58-12.55,12.04-20.86,27.3-23.88,44.52-2.49,14.2-2.15,28.49,1.13,42.53,6.95,29.75,30.06,53.54,60.72,58.41,9.81,1.56,19.31,1.54,29.37-.1Z"/>
  <path class="st0" d="M248.99,339.81c17.75,11.71,37.07,19.05,58.13,13.25,16.78-4.62,24.59-18.01,28.71-33.95,4.76-18.4,5.57-38.93,5.75-58.11v-125.17s-46.37,0-46.37,0v-63.55s109.13.03,109.13.03l-.02,193.86c0,13.61-.74,26.79-2.12,40.2-1.39,13.49-4.21,26.29-8.87,38.96-5.01,13.65-12.65,25.57-22.64,36.08-15.08,15.86-34.47,26.39-56.18,30.12-33.21,5.7-67.33-.97-96.07-18.42l30.54-53.29Z"/>
  <path class="st0" d="M737.67,216.4c-8.67,14.63-11.29,34.58-11.29,51.63l-.03,137.95-60.37-.02V144.96s60.34,0,60.34,0l.06,23.14c6.43-6.49,12.59-12.41,19.8-17.71,8.08-5.97,16.92-9.94,26.89-11.55,23.04-3.91,44.05,2.59,63.8,14.45l-27.62,55.17c-13.21-9.23-26.08-14.12-41.88-11.68-12.63,1.62-23.22,8.7-29.7,19.63Z"/>
  <path class="st1" d="M938.96,124.61c-12.37,1.23-23.24-4.53-29.41-14.95-4.2-7.08-5.61-15.07-5.09-23.42.66-10.74,5.59-20.53,14.46-26.74,7.41-5.19,16.9-6.38,25.45-3.61,4.8,1.56,8.36,4.53,12.2,7.86l.02-56.3h15.46s0,115.31,0,115.31l-15.36.14-.23-6.76c-5.01,4.52-10.53,7.77-17.5,8.46ZM940.17,110.98c7.05-.54,12.6-4.56,15.33-10.95,2.71-6.33,2.75-13.65.24-20.04-2.86-7.3-9.33-11.59-16.81-11.68s-13.77,4.11-16.83,11.21c-2.99,6.95-2.69,15.33.83,22.03s9.84,9.99,17.24,9.43Z"/>
  <path class="st1" d="M1043.23,124.8c-20.25.9-36.43-14.61-36.81-34.47-.19-9.68,3.08-18.57,10-25.46,6.66-6.63,14.97-10.16,24.46-10.45,15.44-.48,29.62,8.63,34.71,23.43,2.73,7.93,2.61,16.75-.35,24.59-5.07,13.42-17.63,21.72-32.01,22.36ZM1060.6,97.73c1.65-5.52,1.55-11.27-.16-16.53-2.59-8-9.62-12.67-17.88-12.9-9.16-.26-16.94,5.08-19.43,14.04-1.39,5.01-1.23,10.4.23,15.39,2.49,8.54,10,13.4,18.76,13.33,8.56-.07,15.92-4.77,18.48-13.33Z"/>
  <path class="st1" d="M880.94,56.31l15.39.02-.04,39.8c0,4.61-.61,9.18-2.35,13.36-5.57,13.4-21.78,17.59-35.16,14.11-7.24-1.88-13.28-6.63-16.67-13.23-1.95-3.8-2.29-7.81-2.67-12.11v-41.94s15.38,0,15.38,0v38.94c.16,8.21,3.13,15.58,12.41,15.73,4.12.07,8.28-.94,10.69-4.51,1.87-2.78,2.94-6.35,2.95-9.92l.07-40.26Z"/>
  <path class="st1" d="M792.47,121.76c-7.73,4.16-17.23,4.04-24.84-.06-5.32-2.87-8.9-7.87-10.99-13.34l12.99-5.97,4.02,5.99c3.29,2.79,8.45,3.84,12.21,1.15,3.47-2.47,3.08-7.78.12-10.49-8.21-7.49-25.4-7.81-25.98-23.66-.27-7.43,3.01-14.16,9.58-17.98,6.25-3.64,14.18-4.07,20.65-.63,4.45,2.37,7.38,6.37,9.48,10.91l-12.65,6.72c-1.55-2.75-3.15-5.23-6.11-5.95-2.02-.49-4.1.13-5.39,1.68-1.07,1.29-1.64,3.56-.36,5.28,1.63,2.19,4.18,3.62,6.74,4.76,5.04,2.24,9.88,4.48,14.45,7.47,4.45,2.92,7.04,7.09,7.57,12.41.89,8.95-3.17,17.25-11.47,21.72Z"/>
  <polygon class="st1" points="825.59 122.71 810.2 122.89 810.19 70.78 803.63 70.59 803.64 56.38 810.18 56.26 810.2 31.98 825.57 31.89 825.6 56.26 837.52 56.33 837.58 70.64 825.58 70.73 825.59 122.71"/>
  <polygon class="st1" points="998.28 122.82 982.89 122.89 982.89 56.35 998.28 56.35 998.28 122.82"/>
  <path class="st1" d="M989.56,18.78c5.74-.59,10.42,3.66,10.99,8.73.63,5.69-3.41,10.67-8.99,11.19s-10.23-3.26-10.92-8.8c-.66-5.21,3.03-10.52,8.93-11.13Z"/>
</svg>