<?xml version="1.0" encoding="UTF-8"?>
<svg id="Layer_2" data-name="Layer 2" xmlns="http://www.w3.org/2000/svg" xmlns:xlink="http://www.w3.org/1999/xlink" viewBox="0 0 3798.86 3826.74">
  <defs>
    <style>
      .cls-1 {
        clip-path: url(#clippath-2);
      }

      .cls-2 {
        fill: #fff;
      }

      .cls-3 {
        clip-path: url(#clippath);
      }
    </style>
    <clipPath id="clippath">
      <path class="cls-2" d="M1883.16.79c126.76-13.71,246.51,153.71,355.4,220.91,114.38,70.6,211.18,15.35,327.86-11.74,336.65-78.16,255.86,295.52,438.7,420.3,122.39,83.52,282.27,61.9,377.3,121.8,187.08,117.95,8.71,372.84,53.66,549.27,27.42,107.56,200.95,303.52,278.1,413.98,124.88,178.81,104.18,242.14-13.11,405.84l-133.1,185.06c-49.95,69.53-110.84,142.58-126.47,229.3-28.32,156.96,95.34,350.07,8.77,482.03-128.59,196.02-423.09-17.77-589.84,387.18-163.72,397.66-279.86,126.32-539.72,169.21-156.4,25.8-246.05,222.19-390.26,251.8-127.59,14.58-233.86-133.35-329.54-199.07-138.98-95.44-233.9-34.64-380.82-7.91-284.3,51.73-241.89-302.91-414.78-421.12-125.41-85.74-299.57-44.07-408.2-121.24-162-115.09,2.62-382.52-40.25-558.71C312.5,2335.45,30.03,2107.79,1.8,1936.04c-24.49-148.98,206.97-381.09,292.44-500.67,115.32-161.35,63.15-270.72,34.93-444.62-59.58-367.15,328.35-233.82,498.72-373.47,115.95-95.05,113.42-269.55,223.58-366.76,132.92-117.3,306.52,36.99,449.48,1.83C1651.96,215.2,1755.83,20.3,1883.16.79h0ZM1840.96,643.25c-1135.03,68.87-1657.14,1458.54-781.43,2231.56,212.09,187.23,612.63,350.41,897.36,314.5,698.44-44.48,1267.8-621.75,1221.66-1336.08-44.61-690.72-642.07-1250.4-1337.59-1209.98h0Z"/>
    </clipPath>
    <clipPath id="clippath-2">
      <path class="cls-2" d="M2599.79,1228.86c113.35-8.35,219.29,77.36,217.58,196.06-1.42,98.99-102.49,171.95-166.09,235.35l-701.98,698.18c-76.93,76.76-189.25,228.91-304.16,224.44-104.64-4.08-188.89-121.22-254.84-188.99-63.85-65.62-129-130.03-192.09-196.39l-80.66-82.3c-57.56-59.37-140.23-124.9-138-215.4,3.49-141.35,174.37-249.33,298.66-174.41,74.03,44.62,313.58,299.43,378.9,370.02,27.36-21.9,51.89-50.41,76.87-75.19l676.5-668.31c56.78-56.04,106.74-109.99,189.33-123.05h0Z"/>
    </clipPath>
  </defs>
  <g id="katman_1" data-name="katman 1">
    <g>
      <g>
        <path class="cls-2" d="M1883.16.79c126.76-13.71,246.51,153.71,355.4,220.91,114.38,70.6,211.18,15.35,327.86-11.74,336.65-78.16,255.86,295.52,438.7,420.3,122.39,83.52,282.27,61.9,377.3,121.8,187.08,117.95,8.71,372.84,53.66,549.27,27.42,107.56,200.95,303.52,278.1,413.98,124.88,178.81,104.18,242.14-13.11,405.84l-133.1,185.06c-49.95,69.53-110.84,142.58-126.47,229.3-28.32,156.96,95.34,350.07,8.77,482.03-128.59,196.02-423.09-17.77-589.84,387.18-163.72,397.66-279.86,126.32-539.72,169.21-156.4,25.8-246.05,222.19-390.26,251.8-127.59,14.58-233.86-133.35-329.54-199.07-138.98-95.44-233.9-34.64-380.82-7.91-284.3,51.73-241.89-302.91-414.78-421.12-125.41-85.74-299.57-44.07-408.2-121.24-162-115.09,2.62-382.52-40.25-558.71C312.5,2335.45,30.03,2107.79,1.8,1936.04c-24.49-148.98,206.97-381.09,292.44-500.67,115.32-161.35,63.15-270.72,34.93-444.62-59.58-367.15,328.35-233.82,498.72-373.47,115.95-95.05,113.42-269.55,223.58-366.76,132.92-117.3,306.52,36.99,449.48,1.83C1651.96,215.2,1755.83,20.3,1883.16.79h0ZM1840.96,643.25c-1135.03,68.87-1657.14,1458.54-781.43,2231.56,212.09,187.23,612.63,350.41,897.36,314.5,698.44-44.48,1267.8-621.75,1221.66-1336.08-44.61-690.72-642.07-1250.4-1337.59-1209.98h0Z"/>
        <g class="cls-3">
          <rect class="cls-2" x="-.04" y=".15" width="3798.96" height="3826.56"/>
        </g>
      </g>
      <g>
        <path class="cls-2" d="M2599.79,1228.86c113.35-8.35,219.29,77.36,217.58,196.06-1.42,98.99-102.49,171.95-166.09,235.35l-701.98,698.18c-76.93,76.76-189.25,228.91-304.16,224.44-104.64-4.08-188.89-121.22-254.84-188.99-63.85-65.62-129-130.03-192.09-196.39l-80.66-82.3c-57.56-59.37-140.23-124.9-138-215.4,3.49-141.35,174.37-249.33,298.66-174.41,74.03,44.62,313.58,299.43,378.9,370.02,27.36-21.9,51.89-50.41,76.87-75.19l676.5-668.31c56.78-56.04,106.74-109.99,189.33-123.05h0Z"/>
        <g class="cls-1">
          <rect class="cls-2" x="979.4" y="1228.23" width="1838.16" height="1354.8"/>
        </g>
      </g>
    </g>
  </g>
</svg>